<svg xmlns="http://www.w3.org/2000/svg" viewBox="0 0 173.83 173.83"><defs><style>.cls-1{fill:#f7ca18;}</style></defs><title>404</title><g id="Layer_2" data-name="Layer 2"><g id="Layer_1-2" data-name="Layer 1"><path class="cls-1" d="M74.41,94C76,92.79,84.77,98.36,92,104.25l.95-1.16C89.21,100,76.68,90.27,73.47,92.88c-1.36,1.11-.95,3.6,1.35,8.09-1.65,2.32-7.77,11.68-5.49,19.5.68,3.7,4.68,7.7,9,8.55,1.63.15.26-.7.26-.7C74,126.61,71.1,123.9,70,120.26c-2.46-8.44,5.88-20,6-20.09C73.34,95,74.24,94.19,74.41,94Z"/><path class="cls-1" d="M84,91.92A2.15,2.15,0,0,1,82.17,91c-1.27-1.76.27-4.64.46-5-.15.44,1.66-3.28,1.09-.64s-.92,3.93-.33,4.75a.66.66,0,0,0,.61.27,83.68,83.68,0,0,0,11.34-1.36c3.18-.88,4.52-2.47,3.66-5.89,0,0-.12-2.25.92,1,1.13,4.51-.61,5.38-4.2,6.38A84.14,84.14,0,0,1,84,91.92Z"/><circle class="cls-1" cx="79.44" cy="70.64" r="2.73"/><circle class="cls-1" cx="108.44" cy="69.64" r="2.73"/><path class="cls-1" d="M77.06,59.33a17.94,17.94,0,0,0,4.61-5.16s-1-10.63-2.23-8.87c0,0-7.69,12.63-20.56,14.44,0,0-1.12,5.81,0,5.81a33.33,33.33,0,0,0,5.32-.72,11.65,11.65,0,1,0,12.86-5.5ZM74.28,80.79a10.14,10.14,0,0,1-7.94-16.48,32.21,32.21,0,0,0,9-3.78,10.16,10.16,0,0,1-1.05,20.26Z"/><path class="cls-1" d="M118.21,58.11c-12,2.36-22.73-6.5-22.73-6.5-1.63-1.19.75,8.58.75,8.58.2.17.4.33.61.49a11.66,11.66,0,1,0,17.81,3.65,32.32,32.32,0,0,0,5.35-1C121,62.93,118.21,58.11,118.21,58.11Zm-3.77,11.52a10.16,10.16,0,1,1-16.32-8.06c4.65,2.91,10.43,3.26,14.9,2.91A10.08,10.08,0,0,1,114.44,69.64Z"/><ellipse class="cls-1" cx="89.42" cy="56.96" rx="0.52" ry="5.45"/><path class="cls-1" d="M85,31.89c-.51.21-1.38-.41-.3-1a13.32,13.32,0,0,1,8.45,0c2,.77.35,1.35-.32.95A12.81,12.81,0,0,0,85,31.89Z"/><path class="cls-1" d="M83.83,37.31c-.6.21-1.65-.41-.36-1a18.87,18.87,0,0,1,10.1,0c2.38.77.41,1.35-.38.95A18.16,18.16,0,0,0,83.83,37.31Z"/><path class="cls-1" d="M147.58,0H26.25A26.33,26.33,0,0,0,0,26.25V147.58a26.33,26.33,0,0,0,26.25,26.25h9.31C36.3,167.92,40,155,58,152.79,82.86,148.54,79.63,132,79.63,132s-28.75,1.63-28-38.87c0,0-16.88,5.07-16.87-7.75C34.63,74.79,39,70.67,49.25,74.29c0,0-3.25-32.38,11.13-44,9.65-8,36.38-18,60.38,0C135.38,41.54,131,75.42,131,75.42s16.13-8.52,13.88,10.13c-2.5,12.7-14.26,7.88-14.26,7.88s-1.12,40.37-30.87,39.24c0,0-4.12,16.5,17.75,20.75,19.72,3.83,19.12,11.52,20.74,20.42h9.35a26.33,26.33,0,0,0,26.25-26.25V26.25A26.33,26.33,0,0,0,147.58,0Z"/></g></g></svg>