<svg xmlns="http://www.w3.org/2000/svg" viewBox="0 0 173.83 173.83"><defs><style>.cls-1{fill:#ef4836;}</style></defs><title>500</title><g id="Layer_2" data-name="Layer 2"><g id="Layer_1-2" data-name="Layer 1"><ellipse class="cls-1" cx="88.75" cy="54.83" rx="0.52" ry="5.45"/><path class="cls-1" d="M147.58,0H26.25A26.33,26.33,0,0,0,0,26.25V147.58a26.33,26.33,0,0,0,26.25,26.25h9.31C36.3,167.92,40,155,58,152.79,82.86,148.54,79.63,132,79.63,132s-28.75,1.63-28-38.87c0,0-16.88,5.07-16.87-7.75C34.63,74.79,39,70.67,49.25,74.29c0,0-3.25-32.38,11.13-44,9.65-8,36.38-18,60.38,0C135.38,41.54,131,75.42,131,75.42s16.13-8.52,13.88,10.13c-2.5,12.7-14.26,7.88-14.26,7.88s-1.12,40.37-30.87,39.24c0,0-4.12,16.5,17.75,20.75,19.72,3.83,19.12,11.52,20.74,20.42h9.35a26.33,26.33,0,0,0,26.25-26.25V26.25A26.33,26.33,0,0,0,147.58,0Z"/><path class="cls-1" d="M84.31,67.68c2.16-2.33.1-8.68.1-8.68-7.5,1.83-16.58-3.58-19.75-5.92s-4.62,3.59-4,6.35c.2.82,1.89,2,4.27,3.32a12.56,12.56,0,1,0,19.33,4.93ZM72.75,83.17A10.56,10.56,0,0,1,67,63.76c5.31,2.54,12.52,5,15.51,4.75a10.56,10.56,0,0,1-9.74,14.66Z"/><circle class="cls-1" cx="73.57" cy="72.18" r="3.65"/><path class="cls-1" d="M113.09,63.23c2.83-1.48,4.8-3.1,4.74-4.64-.17-4.33-5.17-6.67-5.17-6.67s-7,9.5-19.5,8c0,0-2,5.54.07,7.68a12.57,12.57,0,1,0,19.86-4.37Zm-8.34,19.94A10.56,10.56,0,0,1,95.06,68.4a5.15,5.15,0,0,0,.94,0,56,56,0,0,0,15.11-4.24,10.55,10.55,0,0,1-6.35,19Z"/><circle class="cls-1" cx="105.57" cy="72.18" r="3.65"/><path class="cls-1" d="M82.88,106.27c-1.17,1.38-3.19.72-1.6-1.2s3.49-4.14,7.25-4.13c2.17.13,4.26,1.71,5.58,4.23s-.76,3-1.73,1c-1.38-2.2-2.52-3.14-4-3.23C86,102.79,84.06,104.89,82.88,106.27Z"/><path class="cls-1" d="M95.21,88.76c-.67,2.37.63,4.66-1.21,5.16-2.42.54-13.08,0-13.08,0s-2.79.46-1.79-5.79C79,85.79,75.13,94,78,95.37c3.58,1.5,18.67.63,19-.12C97.81,94.92,98.46,89,95.21,88.76Z"/></g></g></svg>