<svg xmlns="http://www.w3.org/2000/svg" viewBox="0 0 668.79 266.19"><defs><style>.cls-1{fill:#ececec;}</style></defs><title>Asset 2</title><g id="Layer_2" data-name="Layer 2"><g id="Layer_1-2" data-name="Layer 1"><path class="cls-1" d="M1.34,18s-9.5,19.5,22,43c32,21,72.5,55.5,72.5,55.5s14.5,11.5,13.5,26.5c0,20-66,122-66,122s14,7,32-13c12-13,59.5-60.5,59.5-60.5s6-8,11-1,62.5,61.5,62.5,61.5,12,10,22,11-58-108-58-108-6-14,7-27,96.5-83.5,96.5-83.5,3.36-3.47,4.5-6.5c3-17,6-24.75-9-15-20,17-123,82-123,82s-6,5-17-1S1.34,18,1.34,18Z"/><circle class="cls-1" cx="140.84" cy="39.5" r="39.5"/><path class="cls-1" d="M387.34,18s-10,22,22,43,72.5,55.5,72.5,55.5,14.5,11.5,13.5,26.5c0,20-66,122-66,122s14,7,32-13c12-13,59.5-60.5,59.5-60.5s6-8,11-1,62.5,61.5,62.5,61.5,12,10,22,11-58-108-58-108-6-14,7-27,96.5-83.5,96.5-83.5,3.36-3.47,4.5-6.5c3-17,6-24.75-9-15-20,17-123,82-123,82s-6,5-17-1S387.34,18,387.34,18Z"/><circle class="cls-1" cx="526.84" cy="39.5" r="39.5"/><path class="cls-1" d="M232.94,86s-7.25,15.94,15.94,31.15S301.4,157.4,301.4,157.4s10.51,8.33,9.78,19.2c0,14.49-47.81,88.39-47.81,88.39s10.14,5.07,23.18-9.42c8.69-9.42,43.11-43.83,43.11-43.83s4.34-5.8,8-.72,45.28,44.55,45.28,44.55,8.69,7.25,15.94,8-42-78.24-42-78.24-4.35-10.15,5.07-19.57,69.91-60.49,69.91-60.49a17.62,17.62,0,0,0,3.26-4.71c2.17-12.32,4.35-17.93-6.52-10.87-14.49,12.32-89.11,59.41-89.11,59.41s-4.35,3.62-12.32-.72S232.94,86,232.94,86Z"/><circle class="cls-1" cx="334" cy="101.62" r="28.62"/></g></g></svg>