<svg xmlns="http://www.w3.org/2000/svg" xmlns:xlink="http://www.w3.org/1999/xlink" viewBox="0 0 288 241"><defs><style>.cls-1{fill:url(#linear-gradient);}.cls-2{fill:url(#linear-gradient-2);}.cls-3{fill:url(#linear-gradient-3);}.cls-4{fill:url(#linear-gradient-4);}.cls-5{fill:url(#linear-gradient-5);}.cls-6{fill:url(#linear-gradient-6);}.cls-7{fill:url(#linear-gradient-7);}.cls-8{fill:url(#linear-gradient-8);}</style><linearGradient id="linear-gradient" x1="231.44" y1="-51.91" x2="236.53" y2="451.16" gradientUnits="userSpaceOnUse"><stop offset="0" stop-color="#9acf21"/><stop offset="1" stop-color="#82c41b"/></linearGradient><linearGradient id="linear-gradient-2" x1="169.44" y1="-51.91" x2="174.53" y2="451.16" xlink:href="#linear-gradient"/><linearGradient id="linear-gradient-3" x1="109.44" y1="-51.91" x2="114.53" y2="451.16" xlink:href="#linear-gradient"/><linearGradient id="linear-gradient-4" x1="231.44" y1="18.09" x2="236.53" y2="521.16" xlink:href="#linear-gradient"/><linearGradient id="linear-gradient-5" x1="169.44" y1="18.09" x2="174.53" y2="521.16" xlink:href="#linear-gradient"/><linearGradient id="linear-gradient-6" x1="111.44" y1="18.09" x2="116.53" y2="521.16" xlink:href="#linear-gradient"/><linearGradient id="linear-gradient-7" x1="49.44" y1="18.09" x2="54.53" y2="521.16" xlink:href="#linear-gradient"/><linearGradient id="linear-gradient-8" x1="135.31" y1="-725.5" x2="163.3" y2="2040.24" gradientUnits="userSpaceOnUse"><stop offset="0.18" stop-color="#fff"/><stop offset="0.35" stop-color="#dbdbdb"/><stop offset="0.72" stop-color="#827f80"/><stop offset="1" stop-color="#3a3637"/></linearGradient></defs><title>Asset 4</title><g id="Layer_2" data-name="Layer 2"><g id="Layer_1-2" data-name="Layer 1"><rect class="cls-1" x="211" y="80" width="44" height="44" rx="9.03"/><rect class="cls-2" x="149" y="80" width="44" height="44" rx="9.03"/><rect class="cls-3" x="89" y="80" width="44" height="44" rx="9.03"/><rect class="cls-4" x="211" y="150" width="44" height="44" rx="9.03"/><rect class="cls-5" x="149" y="150" width="44" height="44" rx="9.03"/><rect class="cls-6" x="91" y="150" width="44" height="44" rx="9.03"/><rect class="cls-7" x="29" y="150" width="44" height="44" rx="9.03"/><path class="cls-8" d="M275.37,25H246.55V13.28a13.28,13.28,0,1,0-26.55,0V25H56.55V13.28a13.28,13.28,0,1,0-26.55,0V25H12.63C5.66,25,0,31.87,0,40.35v185.3C0,234.13,5.66,241,12.63,241H275.37c7,0,12.63-6.87,12.63-15.35V40.35C288,31.87,282.34,25,275.37,25Zm.29,184.65C275.66,218.13,270,225,263,225H25c-7,0-12.63-6.87-12.63-15.35V72.35C12.34,63.87,18,57,25,57H263c7,0,12.63,6.87,12.63,15.35Z"/></g></g></svg>