<svg xmlns="http://www.w3.org/2000/svg" xmlns:xlink="http://www.w3.org/1999/xlink" viewBox="0 0 103.07 102.88"><defs><style>.cls-1{fill:url(#linear-gradient);}.cls-2{fill:url(#linear-gradient-2);}.cls-3{fill:url(#linear-gradient-3);}.cls-4{fill:url(#linear-gradient-4);}.cls-5{fill:url(#linear-gradient-5);}.cls-6{fill:url(#linear-gradient-6);}.cls-7{fill:url(#linear-gradient-7);}</style><linearGradient id="linear-gradient" x1="51.54" y1="-55.78" x2="51.54" y2="194.22" gradientUnits="userSpaceOnUse"><stop offset="0.02" stop-color="#fff"/><stop offset="0.05" stop-color="#fff"/><stop offset="0.2" stop-color="#fbfbfb"/><stop offset="0.33" stop-color="#f1f0f0"/><stop offset="0.46" stop-color="#dedede"/><stop offset="0.59" stop-color="#c5c4c4"/><stop offset="0.71" stop-color="#a4a2a2"/><stop offset="0.84" stop-color="#7b7879"/><stop offset="0.96" stop-color="#4c4849"/><stop offset="1" stop-color="#3a3637"/></linearGradient><linearGradient id="linear-gradient-2" x1="61.51" y1="55.68" x2="86.51" y2="55.68" gradientUnits="userSpaceOnUse"><stop offset="0" stop-color="#9acf21"/><stop offset="1" stop-color="#82c41b"/></linearGradient><linearGradient id="linear-gradient-3" x1="48.32" y1="70.3" x2="78.17" y2="70.3" xlink:href="#linear-gradient-2"/><linearGradient id="linear-gradient-4" x1="19.72" y1="75.8" x2="56.49" y2="75.8" xlink:href="#linear-gradient-2"/><linearGradient id="linear-gradient-5" x1="16.58" y1="46.88" x2="41.56" y2="46.88" xlink:href="#linear-gradient-2"/><linearGradient id="linear-gradient-6" x1="25.22" y1="32.42" x2="54.6" y2="32.42" xlink:href="#linear-gradient-2"/><linearGradient id="linear-gradient-7" x1="46.43" y1="27.08" x2="83.36" y2="27.08" xlink:href="#linear-gradient-2"/></defs><title>cam</title><g id="Layer_2" data-name="Layer 2"><g id="Layer_1-2" data-name="Layer 1"><path class="cls-1" d="M51.64,0a51.44,51.44,0,1,0,51.44,51.44A51.51,51.51,0,0,0,51.64,0Zm0,91.88A40.44,40.44,0,1,1,92.05,51.44,40.5,40.5,0,0,1,51.62,91.88Z"/><path class="cls-2" d="M80.06,71.55h0L68.27,51.44,64,44.21l-2.52-4.4,23.1.16a35,35,0,0,1-4.56,31.59Z"/><path class="cls-3" d="M51.62,86.33h0a21.15,21.15,0,0,1-3.3-.16L59.94,65.74,64,58.67l2.51-4.4,11.63,19.8A34.9,34.9,0,0,1,51.62,86.33Z"/><path class="cls-4" d="M19.72,65.74H56.49L45.17,85.85A35.17,35.17,0,0,1,19.72,65.74Z"/><path class="cls-5" d="M16.58,51.44h0a34.72,34.72,0,0,1,6.76-20.58L35,51.44,39,58.51l2.52,4.4H18.62a34.51,34.51,0,0,1-2-11.47Z"/><path class="cls-6" d="M51.62,16.4h0c.94,0,2,.16,3,.16L43.29,37,39,44.21l-2.51,4.24-11.32-20a35,35,0,0,1,26.4-12.1Z"/><path class="cls-7" d="M83.36,37.14h0L59.94,37H46.43L57.59,17A34.67,34.67,0,0,1,83.36,37.14Z"/></g></g></svg>