<svg xmlns="http://www.w3.org/2000/svg" xmlns:xlink="http://www.w3.org/1999/xlink" viewBox="0 0 89.03 88.99"><defs><style>.cls-1{fill:url(#linear-gradient);}.cls-2{fill:url(#linear-gradient-2);}</style><linearGradient id="linear-gradient" x1="44.52" y1="-56.92" x2="44.52" y2="257.04" gradientUnits="userSpaceOnUse"><stop offset="0.17" stop-color="#fff"/><stop offset="0.48" stop-color="#bab9b9"/><stop offset="1" stop-color="#3a3637"/></linearGradient><linearGradient id="linear-gradient-2" x1="23.15" y1="44.77" x2="65.31" y2="44.77" gradientUnits="userSpaceOnUse"><stop offset="0" stop-color="#9acf21"/><stop offset="1" stop-color="#82c41b"/></linearGradient></defs><title>cog</title><g id="Layer_2" data-name="Layer 2"><g id="Layer_1-2" data-name="Layer 1"><path class="cls-1" d="M81.25,27.4l-4.47,1.92a35.78,35.78,0,0,0-8.55-11.42l3.5-6.6a4,4,0,0,0-1.66-5.42L65.14,3.26a4,4,0,0,0-5.42,1.66l-3.19,6A36.08,36.08,0,0,0,42,8.8L39.92,2.7A4,4,0,0,0,34.83.22L29.55,2a4,4,0,0,0-2.49,5.09l1.75,5.08a35.78,35.78,0,0,0-12.58,9.89l-4.4-2.34a4,4,0,0,0-5.42,1.66L3.79,26.35a4,4,0,0,0,1.66,5.42l4.38,2.33A36,36,0,0,0,8.37,48.37L2.7,50.32A4,4,0,0,0,.22,55.41L2,60.69a4,4,0,0,0,5.09,2.49l5.15-1.77a35.76,35.76,0,0,0,8.61,10.8L18,77.7a4,4,0,0,0,1.66,5.42l4.93,2.62A4,4,0,0,0,30,84.07l2.75-5.18a36,36,0,0,0,15.1,1.72l1.95,5.67a4,4,0,0,0,5.09,2.49L60.15,87a4,4,0,0,0,2.49-5.09l-1.77-5.15a35.75,35.75,0,0,0,10.8-8.61L77.16,71a4,4,0,0,0,5.42-1.66l2.62-4.93A4,4,0,0,0,83.54,59l-5.18-2.75A36.07,36.07,0,0,0,80.2,42.65l6.41-2.75a4,4,0,0,0,2.1-5.26l-2.2-5.13A4,4,0,0,0,81.25,27.4ZM22.36,54.15A23.8,23.8,0,1,1,53.61,66.63,23.82,23.82,0,0,1,22.36,54.15Z"/><path class="cls-2" d="M64.06,37.62a21.08,21.08,0,1,0-12.68,27A21.1,21.1,0,0,0,64.06,37.62ZM49,58.11A14.18,14.18,0,1,1,57.57,40,14.2,14.2,0,0,1,49,58.11Z"/></g></g></svg>