<svg xmlns="http://www.w3.org/2000/svg" xmlns:xlink="http://www.w3.org/1999/xlink" viewBox="0 0 93.06 84.13"><defs><style>.cls-1{fill:#393939;}.cls-2{fill:url(#linear-gradient);}.cls-3{fill:#8ac716;}.cls-4{fill:url(#linear-gradient-2);}</style><linearGradient id="linear-gradient" x1="-39.65" y1="-41.22" x2="59.33" y2="83.31" gradientUnits="userSpaceOnUse"><stop offset="0" stop-color="#fff"/><stop offset="0.94"/></linearGradient><linearGradient id="linear-gradient-2" x1="61.68" y1="2.99" x2="86.23" y2="31.54" gradientUnits="userSpaceOnUse"><stop offset="0" stop-color="#c3e30c"/><stop offset="0.63" stop-color="#82c41b"/></linearGradient></defs><title>cogs</title><g id="Layer_2" data-name="Layer 2"><g id="Layer_1-2" data-name="Layer 1"><path class="cls-1" d="M33.14,66.49A15.5,15.5,0,1,1,48.64,51,15.52,15.52,0,0,1,33.14,66.49Zm0-28A12.5,12.5,0,1,0,45.64,51,12.51,12.51,0,0,0,33.14,38.49Z"/><path class="cls-2" d="M63.19,50H59.62a26.31,26.31,0,0,0-2.47-10.2l4.28-3.45a3,3,0,0,0,.45-4.14L59.31,29a3,3,0,0,0-4.14-.45l-3.9,3.13A26.53,26.53,0,0,0,42.08,26l.35-4.73a3,3,0,0,0-2.72-3.16l-4.1-.3a3,3,0,0,0-3.16,2.72l-.29,3.94a26.31,26.31,0,0,0-11.37,3L18.5,24.7a3,3,0,0,0-4.14-.45l-3.2,2.57A3,3,0,0,0,10.7,31L13,33.81A26.48,26.48,0,0,0,7.86,43l-4.4-.33A3,3,0,0,0,.31,45.42L0,49.52a3,3,0,0,0,2.72,3.16l4,.3a26.3,26.3,0,0,0,2.69,9.8L5.85,65.63a3,3,0,0,0-.45,4.14L8,73a3,3,0,0,0,4.14.45l3.36-2.7a26.5,26.5,0,0,0,9.7,5.54l-.33,4.4a3,3,0,0,0,2.72,3.16l4.1.3a3,3,0,0,0,3.16-2.72l.3-4a26.29,26.29,0,0,0,9.8-2.69l2.87,3.56a3,3,0,0,0,4.14.45l3.2-2.57A3,3,0,0,0,55.58,72l-2.7-3.36A26.52,26.52,0,0,0,58.06,60h5.13A3,3,0,0,0,66.14,57V52.94A3,3,0,0,0,63.19,50ZM15.64,51a17.5,17.5,0,1,1,17.5,17.5A17.52,17.52,0,0,1,15.64,51Z"/><path class="cls-3" d="M77.55,26.6a8.68,8.68,0,1,1,5.22-11.11A8.69,8.69,0,0,1,77.55,26.6ZM72.23,11.85a7,7,0,1,0,9,4.21A7,7,0,0,0,72.23,11.85Z"/><path class="cls-4" d="M89.85,11.28,88,12.08a14.74,14.74,0,0,0-3.52-4.71l1.44-2.72a1.66,1.66,0,0,0-.68-2.23l-2-1.08A1.66,1.66,0,0,0,81,2L79.67,4.5a14.86,14.86,0,0,0-6-.87l-.86-2.51a1.66,1.66,0,0,0-2.1-1L68.56.84a1.66,1.66,0,0,0-1,2.1L68.26,5A14.74,14.74,0,0,0,63.08,9.1l-1.81-1A1.66,1.66,0,0,0,59,8.82l-1.08,2a1.66,1.66,0,0,0,.68,2.23l1.8,1a14.83,14.83,0,0,0-.6,5.88l-2.33.8a1.66,1.66,0,0,0-1,2.1L57.23,25a1.66,1.66,0,0,0,2.1,1l2.12-.73A14.73,14.73,0,0,0,65,29.74L63.79,32a1.66,1.66,0,0,0,.68,2.23l2,1.08a1.66,1.66,0,0,0,2.23-.68l1.13-2.13a14.84,14.84,0,0,0,6.22.71l.8,2.33a1.66,1.66,0,0,0,2.1,1l2.18-.75a1.66,1.66,0,0,0,1-2.1l-.73-2.12A14.73,14.73,0,0,0,85.91,28l2.26,1.2a1.66,1.66,0,0,0,2.23-.68l1.08-2a1.66,1.66,0,0,0-.68-2.23l-2.13-1.13a14.86,14.86,0,0,0,.76-5.61l2.64-1.13a1.66,1.66,0,0,0,.87-2.17L92,12.15A1.66,1.66,0,0,0,89.85,11.28ZM65.6,22.3a9.8,9.8,0,1,1,12.87,5.14A9.81,9.81,0,0,1,65.6,22.3Z"/></g></g></svg>