<svg xmlns="http://www.w3.org/2000/svg" xmlns:xlink="http://www.w3.org/1999/xlink" viewBox="0 0 220.86 179.08"><defs><style>.cls-1{fill:url(#linear-gradient);}.cls-2{fill:url(#linear-gradient-2);}.cls-3{fill:url(#linear-gradient-3);}.cls-4{fill:url(#linear-gradient-4);}.cls-5{fill:url(#linear-gradient-5);}.cls-6{fill:url(#linear-gradient-6);}.cls-7{fill:url(#linear-gradient-7);}.cls-8{fill:url(#linear-gradient-8);}</style><linearGradient id="linear-gradient" x1="110.43" y1="-6.8" x2="110.43" y2="325.87" gradientUnits="userSpaceOnUse"><stop offset="0.02" stop-color="#fff"/><stop offset="0.05" stop-color="#fff"/><stop offset="0.17" stop-color="#fbfbfb"/><stop offset="0.33" stop-color="#f1f0f0"/><stop offset="0.46" stop-color="#dedede"/><stop offset="0.59" stop-color="#c5c4c4"/><stop offset="0.71" stop-color="#a4a2a2"/><stop offset="0.84" stop-color="#7b7879"/><stop offset="0.96" stop-color="#4c4849"/><stop offset="0.96" stop-color="#3a3637"/></linearGradient><linearGradient id="linear-gradient-2" x1="150.02" y1="96.87" x2="168.27" y2="96.87" gradientUnits="userSpaceOnUse"><stop offset="0" stop-color="#9acf21"/><stop offset="1" stop-color="#82c41b"/></linearGradient><linearGradient id="linear-gradient-3" x1="183.02" y1="96.87" x2="201.27" y2="96.87" xlink:href="#linear-gradient-2"/><linearGradient id="linear-gradient-4" x1="166.52" y1="113.37" x2="184.77" y2="113.37" xlink:href="#linear-gradient-2"/><linearGradient id="linear-gradient-5" x1="166.52" y1="80.37" x2="184.77" y2="80.37" xlink:href="#linear-gradient-2"/><linearGradient id="linear-gradient-6" x1="24.98" y1="97.76" x2="64.52" y2="97.76" xlink:href="#linear-gradient-2"/><linearGradient id="linear-gradient-7" x1="67.18" y1="15.41" x2="153.68" y2="15.41" xlink:href="#linear-gradient-2"/><linearGradient id="linear-gradient-8" x1="82.52" y1="37.01" x2="138.34" y2="37.01" xlink:href="#linear-gradient-2"/></defs><title>Asset 6</title><g id="Layer_2" data-name="Layer 2"><g id="Layer_1-2" data-name="Layer 1"><path class="cls-1" d="M204.59,60.74c-6.25-9.25-20.94-11.5-20.94-11.5s-29.81-5-36.19,3.48c-6.15,7.7-4.73,11.36-15.79,12.71-1.72.06-3.51.16-5.4.32-6.07.14-11.3.24-15.84.29s-9.77-.15-15.84-.29c-1.89-.16-3.69-.26-5.4-.32-11.06-1.35-9.65-5-15.79-12.71C67,44.19,37.21,49.24,37.21,49.24s-14.69,2.25-20.94,11.5c-21.5,28-15.5,89.07-15.5,89.07s4,32.93,27,28.93,36.5-41.5,36.5-41.5h14l32.16,1.66,32.16-1.66h14s13.5,37.5,36.5,41.5,27-28.93,27-28.93S226.09,88.74,204.59,60.74ZM43.14,131.12A34.25,34.25,0,1,1,77.39,96.87,34.25,34.25,0,0,1,43.14,131.12Zm134,0a34.25,34.25,0,1,1,34.25-34.25A34.25,34.25,0,0,1,177.14,131.12Z"/><circle class="cls-2" cx="159.14" cy="96.87" r="9.12"/><circle class="cls-3" cx="192.14" cy="96.87" r="9.12"/><circle class="cls-4" cx="175.64" cy="113.37" r="9.12"/><circle class="cls-5" cx="175.64" cy="80.37" r="9.12"/><polygon class="cls-6" points="64.53 90.28 52.23 90.28 52.23 77.99 37.27 77.99 37.27 90.28 24.98 90.28 24.98 105.25 37.27 105.25 37.27 117.54 52.23 117.54 52.23 105.25 64.53 105.25 64.53 90.28"/><path class="cls-7" d="M110.43,10A38.84,38.84,0,0,1,144.8,30.82l8.87-4.61a48.78,48.78,0,0,0-86.49,0l8.87,4.61A38.84,38.84,0,0,1,110.43,10Z"/><path class="cls-8" d="M110.43,36.26a21.54,21.54,0,0,1,19,11.5l8.88-4.61a31.51,31.51,0,0,0-55.82,0l8.88,4.61A21.54,21.54,0,0,1,110.43,36.26Z"/></g></g></svg>