<svg xmlns="http://www.w3.org/2000/svg" xmlns:xlink="http://www.w3.org/1999/xlink" viewBox="0 0 96 96"><defs><style>.cls-1{fill:url(#linear-gradient);}.cls-2{fill:url(#linear-gradient-2);}</style><linearGradient id="linear-gradient" x1="-1005.99" y1="95.55" x2="-954.5" y2="95.55" gradientTransform="translate(1004.67 -210.94) rotate(-9.85)" gradientUnits="userSpaceOnUse"><stop offset="0" stop-color="#9acf21"/><stop offset="1" stop-color="#82c41b"/></linearGradient><linearGradient id="linear-gradient-2" x1="47.4" y1="-19.98" x2="48.9" y2="149.52" gradientUnits="userSpaceOnUse"><stop offset="0.02" stop-color="#fff"/><stop offset="0.05" stop-color="#fff"/><stop offset="0.2" stop-color="#fbfbfb"/><stop offset="0.33" stop-color="#f1f0f0"/><stop offset="0.46" stop-color="#dedede"/><stop offset="0.73" stop-color="#bcbbbb"/><stop offset="0.75" stop-color="#a4a2a2"/><stop offset="0.84" stop-color="#7b7879"/><stop offset="0.96" stop-color="#4c4849"/><stop offset="1" stop-color="#3a3637"/></linearGradient></defs><title>Asset 5</title><g id="Layer_2" data-name="Layer 2"><g id="Layer_1-2" data-name="Layer 1"><path class="cls-1" d="M73.51,72.18S77.22,60.79,69.2,51a19.86,19.86,0,0,1-1.61,6.54,20.15,20.15,0,0,0-8.84-14.88C50.62,37,36,28.09,37.2,13c0,0-9.89,13.88-6.43,25.74a6.51,6.51,0,0,1-3.28-3.09S26.33,63.37,44.63,72.23a29.85,29.85,0,0,1-6.62.34S55,87.94,71.52,76c0,0-22.27-5.2-31.43-32.26,0,0,9.8,23.26,32.3,30.45A27,27,0,0,1,85,86.87l2.39-1.2S85.54,78.56,73.51,72.18Z"/><polygon class="cls-2" points="63.96 86.53 32.04 86.53 9.47 63.96 9.47 32.04 32.04 9.47 63.96 9.47 86.53 32.04 86.53 63.96 82.24 68.24 88.94 74.94 96 67.88 96 28.12 67.88 0 28.12 0 0 28.12 0 67.88 28.12 96 67.88 96 75.14 88.74 68.45 82.04 63.96 86.53"/></g></g></svg>