<svg xmlns="http://www.w3.org/2000/svg" xmlns:xlink="http://www.w3.org/1999/xlink" viewBox="0 0 220.86 179.09"><defs><style>.cls-1{fill:url(#linear-gradient);}.cls-2{fill:url(#linear-gradient-2);}.cls-3{fill:url(#linear-gradient-3);}.cls-4{fill:url(#linear-gradient-4);}.cls-5{fill:url(#linear-gradient-5);}</style><linearGradient id="linear-gradient" x1="110.43" y1="188.81" x2="110.43" y2="-143.86" gradientTransform="matrix(1, 0, 0, -1, 0, 182.02)" gradientUnits="userSpaceOnUse"><stop offset="0.02" stop-color="#fff"/><stop offset="0.05" stop-color="#fff"/><stop offset="0.17" stop-color="#fbfbfb"/><stop offset="0.33" stop-color="#f1f0f0"/><stop offset="0.46" stop-color="#dedede"/><stop offset="0.59" stop-color="#c5c4c4"/><stop offset="0.71" stop-color="#a4a2a2"/><stop offset="0.84" stop-color="#7b7879"/><stop offset="0.96" stop-color="#4c4849"/><stop offset="0.96" stop-color="#3a3637"/></linearGradient><linearGradient id="linear-gradient-2" x1="67.18" y1="166.61" x2="153.67" y2="166.61" gradientTransform="matrix(1, 0, 0, -1, 0, 182.02)" gradientUnits="userSpaceOnUse"><stop offset="0" stop-color="#9acf21"/><stop offset="1" stop-color="#82c41b"/></linearGradient><linearGradient id="linear-gradient-3" x1="82.49" y1="145" x2="138.31" y2="145" xlink:href="#linear-gradient-2"/><linearGradient id="linear-gradient-4" x1="19.97" y1="96.78" x2="67.54" y2="96.78" gradientTransform="matrix(1, 0, 0, 1, 0, 0)" xlink:href="#linear-gradient-2"/><linearGradient id="linear-gradient-5" x1="153.97" y1="96.78" x2="201.54" y2="96.78" gradientTransform="matrix(1, 0, 0, 1, 0, 0)" xlink:href="#linear-gradient-2"/></defs><title>ctrl</title><g id="Layer_2" data-name="Layer 2"><g id="Layer_1-2" data-name="Layer 1"><path class="cls-1" d="M204.59,60.75c-6.25-9.25-20.94-11.5-20.94-11.5s-29.81-5-36.19,3.48c-6.15,7.7-4.73,11.36-15.79,12.71-1.72.06-3.51.16-5.4.32-6.07.14-11.3.24-15.84.29s-9.77-.15-15.84-.29c-1.89-.16-3.69-.26-5.4-.32-11.06-1.35-9.65-5-15.79-12.71C67,44.2,37.21,49.25,37.21,49.25S22.52,51.5,16.27,60.75c-21.5,28-15.5,89.07-15.5,89.07s4,32.93,27,28.93,36.5-41.5,36.5-41.5h14l32.16,1.66,32.16-1.66h14s13.5,37.5,36.5,41.5,27-28.93,27-28.93S226.09,88.75,204.59,60.75ZM43.14,131.13A34.25,34.25,0,1,1,77.39,96.88h0A34.25,34.25,0,0,1,43.14,131.13Zm134,0a34.25,34.25,0,1,1,34.25-34.25h0A34.25,34.25,0,0,1,177.14,131.13Z"/><path class="cls-2" d="M110.43,10A38.84,38.84,0,0,1,144.8,30.83l8.87-4.61a48.78,48.78,0,0,0-86.49,0L76,30.83A38.84,38.84,0,0,1,110.43,10Z"/><path class="cls-3" d="M110.43,36.27a21.54,21.54,0,0,1,19,11.5l8.88-4.61a31.51,31.51,0,0,0-55.82,0l8.88,4.61A21.54,21.54,0,0,1,110.43,36.27Z"/><circle class="cls-4" cx="43.75" cy="96.78" r="23.79"/><circle class="cls-5" cx="177.75" cy="96.78" r="23.79"/></g></g></svg>