<svg xmlns="http://www.w3.org/2000/svg" xmlns:xlink="http://www.w3.org/1999/xlink" viewBox="0 0 190 190"><defs><style>.cls-1{fill:url(#linear-gradient);}.cls-2{fill:url(#linear-gradient-2);}.cls-3{fill:url(#linear-gradient-3);}.cls-4{fill:url(#linear-gradient-4);}.cls-5{fill:url(#linear-gradient-5);}</style><linearGradient id="linear-gradient" x1="155.7" y1="-138.42" x2="158.76" y2="656.64" gradientUnits="userSpaceOnUse"><stop offset="0.18" stop-color="#fff"/><stop offset="0.35" stop-color="#dbdbdb"/><stop offset="0.41" stop-color="#d4d4d4"/><stop offset="0.51" stop-color="#c2c1c1"/><stop offset="0.62" stop-color="#a3a1a2"/><stop offset="0.72" stop-color="#827f80"/><stop offset="1" stop-color="#3a3637"/></linearGradient><linearGradient id="linear-gradient-2" x1="115.7" y1="-138.27" x2="118.76" y2="656.8" gradientUnits="userSpaceOnUse"><stop offset="0.18" stop-color="#fff"/><stop offset="0.35" stop-color="#dbdbdb"/><stop offset="0.72" stop-color="#827f80"/><stop offset="1" stop-color="#3a3637"/></linearGradient><linearGradient id="linear-gradient-3" x1="74.61" y1="-138.11" x2="77.67" y2="656.95" xlink:href="#linear-gradient-2"/><linearGradient id="linear-gradient-4" x1="35.73" y1="-137.96" x2="38.8" y2="657.1" xlink:href="#linear-gradient-2"/><linearGradient id="linear-gradient-5" y1="95" x2="190" y2="95" gradientUnits="userSpaceOnUse"><stop offset="0" stop-color="#9acf21"/><stop offset="1" stop-color="#82c41b"/></linearGradient></defs><title>Asset 1</title><g id="Layer_2" data-name="Layer 2"><g id="Layer_1-2" data-name="Layer 1"><path class="cls-1" d="M169,56.33c0-3.93-2.43-7.11-5.42-7.11H149.73c-3,0-5.42,3.18-5.42,7.11V163.38H169Z"/><path class="cls-2" d="M123.53,19H109.67c-3,0-5.41,3.43-5.41,7.67V163.38h24.68V26.67C128.94,22.43,126.52,19,123.53,19Z"/><path class="cls-3" d="M82.57,87.83H68.72c-3,0-5.42,4.17-5.42,9.3v66.25H88V97.13C88,92,85.56,87.83,82.57,87.83Z"/><path class="cls-4" d="M43.76,129.8H29.91c-3,0-5.42,1.86-5.42,4.14v29.44H49.18V133.94C49.18,131.66,46.76,129.8,43.76,129.8Z"/><path class="cls-5" d="M185.93,179H11V3.72A3.73,3.73,0,0,0,7.28,0H3.72A3.73,3.73,0,0,0,0,3.72V190H185.93a4.07,4.07,0,0,0,4.07-4.07v-2.86A4.07,4.07,0,0,0,185.93,179Z"/></g></g></svg>