<svg xmlns="http://www.w3.org/2000/svg" xmlns:xlink="http://www.w3.org/1999/xlink" viewBox="0 0 302 302"><defs><style>.cls-1{fill:url(#linear-gradient);}.cls-2{fill:url(#linear-gradient-2);}</style><linearGradient id="linear-gradient" x1="140.37" y1="-899.14" x2="175.11" y2="2533.35" gradientUnits="userSpaceOnUse"><stop offset="0" stop-color="#9acf21"/><stop offset="1" stop-color="#82c41b"/></linearGradient><linearGradient id="linear-gradient-2" x1="142.26" y1="-718.03" x2="171.01" y2="2122.14" gradientUnits="userSpaceOnUse"><stop offset="0.18" stop-color="#fff"/><stop offset="0.35" stop-color="#dbdbdb"/><stop offset="0.72" stop-color="#827f80"/><stop offset="1" stop-color="#3a3637"/></linearGradient></defs><title>Asset 3</title><g id="Layer_2" data-name="Layer 2"><g id="Layer_1-2" data-name="Layer 1"><path class="cls-1" d="M151,0A151,151,0,1,0,302,151,151,151,0,0,0,151,0Zm0,289A138,138,0,1,1,289,151,138,138,0,0,1,151,289Z"/><path class="cls-2" d="M151.06,26A124.95,124.95,0,1,0,276,150.9,124.95,124.95,0,0,0,151.06,26ZM163.79,59.5l-3.93,115.11H142.15l-3-115.11ZM150.51,223.8a15.25,15.25,0,1,1,15.25-15.25A15.25,15.25,0,0,1,150.51,223.8Z"/></g></g></svg>