<svg xmlns="http://www.w3.org/2000/svg" xmlns:xlink="http://www.w3.org/1999/xlink" viewBox="0 0 41.86 55.81"><defs><style>.cls-1{fill:url(#linear-gradient);}</style><linearGradient id="linear-gradient" x1="20.93" y1="-138.84" x2="20.93" y2="221.66" gradientUnits="userSpaceOnUse"><stop offset="0.22" stop-color="#fff"/><stop offset="0.38" stop-color="#dbdbdb"/><stop offset="0.73" stop-color="#827f80"/><stop offset="1" stop-color="#3a3637"/></linearGradient></defs><title>lck_login</title><g id="Layer_2" data-name="Layer 2"><g id="Layer_1-2" data-name="Layer 1"><path class="cls-1" d="M38.37,24.42H34.88V14A14,14,0,1,0,7,14V24.42H3.49A3.5,3.5,0,0,0,0,27.9V52.32a3.5,3.5,0,0,0,3.49,3.49H38.37a3.5,3.5,0,0,0,3.49-3.49V27.9A3.5,3.5,0,0,0,38.37,24.42ZM20.93,45.34a3.49,3.49,0,1,1,3.49-3.49A3.49,3.49,0,0,1,20.93,45.34Zm7-20.93H14V14a7,7,0,1,1,14,0Z"/></g></g></svg>