<svg xmlns="http://www.w3.org/2000/svg" xmlns:xlink="http://www.w3.org/1999/xlink" viewBox="0 0 52.36 116.82"><defs><style>.cls-1{fill:#c3e30c;}.cls-2{fill:url(#linear-gradient);}.cls-3{fill:url(#linear-gradient-2);}.cls-4{fill:url(#linear-gradient-3);}.cls-5{fill:url(#linear-gradient-4);}.cls-6{fill:#484848;}.cls-7{fill:#393939;}.cls-8{fill:#83c61a;}.cls-9{fill:#f2f7c4;opacity:0.57;}</style><linearGradient id="linear-gradient" x1="25.03" y1="14.68" x2="28.17" y2="30.61" gradientTransform="translate(5.62 -5.63) rotate(13.73)" gradientUnits="userSpaceOnUse"><stop offset="0" stop-color="#c3e30c"/><stop offset="1" stop-color="#82c41b"/></linearGradient><linearGradient id="linear-gradient-2" x1="23.09" y1="22.92" x2="27.91" y2="44.15" gradientTransform="translate(9.42 -5.17) rotate(13.73)" xlink:href="#linear-gradient"/><linearGradient id="linear-gradient-3" x1="25.04" y1="45.75" x2="27.34" y2="57.45" gradientTransform="translate(12.98 -4.74) rotate(13.73)" gradientUnits="userSpaceOnUse"><stop offset="0" stop-color="#9acf21"/><stop offset="1" stop-color="#82c41b"/></linearGradient><linearGradient id="linear-gradient-4" x1="26.37" y1="41.16" x2="26.37" y2="98.66" gradientUnits="userSpaceOnUse"><stop offset="0" stop-color="#fff"/><stop offset="1"/></linearGradient></defs><title>light</title><g id="Layer_2" data-name="Layer 2"><g id="Layer_1-2" data-name="Layer 1"><rect class="cls-1" x="-0.3" y="2.45" width="31.96" height="11.27" rx="5.64" ry="5.64" transform="translate(-1.47 3.95) rotate(-13.73)"/><rect class="cls-2" x="-0.6" y="14.89" width="53.57" height="11.27" rx="5.64" ry="5.64" transform="translate(-4.12 6.8) rotate(-13.73)"/><rect class="cls-3" x="-0.6" y="30.89" width="53.57" height="11.27" rx="5.64" ry="5.64" transform="translate(-7.92 7.26) rotate(-13.73)"/><rect class="cls-4" x="-0.6" y="45.89" width="53.57" height="11.27" rx="5.64" ry="5.64" transform="translate(-11.48 7.69) rotate(-13.73)"/><path class="cls-5" d="M5.87,72.82s0,13,6,18h29c6-5,6-18,6-18Z"/><rect class="cls-6" x="11.87" y="92.82" width="29" height="6" rx="2.5" ry="2.5"/><rect class="cls-6" x="11.87" y="100.82" width="29" height="6" rx="2.5" ry="2.5"/><path class="cls-7" d="M26.37,116.82a11.54,11.54,0,0,0,10.95-8H15.42A11.54,11.54,0,0,0,26.37,116.82Z"/><polygon class="cls-8" points="33.87 70.82 44.87 70.82 41.87 56.82 31.87 58.82 33.87 70.82"/><polygon class="cls-8" points="6.87 64.82 16.87 62.82 16.87 70.82 6.87 70.82 6.87 64.82"/><path class="cls-9" d="M12.3,36.89c-2.31,1,18.88-3.2,29.31-7.31C41.61,29.58,14.61,35.89,12.3,36.89Z"/><path class="cls-9" d="M12.3,50.89c-2.31,1,18.88-3.2,29.31-7.31C41.61,43.58,14.61,49.89,12.3,50.89Z"/><path class="cls-9" d="M12.3,20.89c-2.31,1,18.88-3.2,29.31-7.31C41.61,13.58,14.61,19.89,12.3,20.89Z"/></g></g></svg>