<svg xmlns="http://www.w3.org/2000/svg" xmlns:xlink="http://www.w3.org/1999/xlink" viewBox="0 0 108.76 109.05"><defs><style>.cls-1{fill:url(#linear-gradient);}.cls-2{fill:url(#linear-gradient-2);}.cls-3{fill:url(#linear-gradient-3);}.cls-4{fill:url(#linear-gradient-4);}.cls-5{fill:url(#linear-gradient-5);}</style><linearGradient id="linear-gradient" x1="54.08" y1="-29.5" x2="54.58" y2="107.25" gradientUnits="userSpaceOnUse"><stop offset="0" stop-color="#9acf21"/><stop offset="1" stop-color="#64c414"/></linearGradient><linearGradient id="linear-gradient-2" x1="27.07" y1="-29.4" x2="27.57" y2="107.35" xlink:href="#linear-gradient"/><linearGradient id="linear-gradient-3" x1="81.33" y1="-29.6" x2="81.83" y2="107.15" xlink:href="#linear-gradient"/><linearGradient id="linear-gradient-4" x1="54.43" y1="-29.5" x2="54.93" y2="107.25" xlink:href="#linear-gradient"/><linearGradient id="linear-gradient-5" x1="54.4" y1="-29.5" x2="54.9" y2="107.25" xlink:href="#linear-gradient"/></defs><title>lion</title><g id="Layer_2" data-name="Layer 2"><g id="Layer_1-2" data-name="Layer 1"><path class="cls-1" d="M0,51.12l1.72,1.1c2.95,1.88,5.39,6,7.05,12a53.53,53.53,0,0,1,1.68,9.06l.2,2.58,2.57-.21a29,29,0,0,1,13.71,2,18,18,0,0,1,4.67,2.72h0l0,0a29.5,29.5,0,0,0,4.63,7.07l1.16,1.34,2.14-.79-.33,4.21.08.37A12.45,12.45,0,0,0,44.82,100a30.57,30.57,0,0,0,3,1.47c2.13.93,3.42,1.5,4.58,3.56l2.24,4,2.24-4c1.16-2.06,2.45-2.62,4.58-3.56a30.55,30.55,0,0,0,3-1.47A12.45,12.45,0,0,0,70,92.49l.08-.37-.33-4.21,2.14.79,1.16-1.34a29.18,29.18,0,0,0,4.87-7.63,20.38,20.38,0,0,1,3.65-2,29,29,0,0,1,13.94-2.06l2.57.21.2-2.58a53.07,53.07,0,0,1,1.66-9c1.67-6,4.12-10.2,7.08-12.1l1.72-1.1-.68-1.92A81.62,81.62,0,0,0,95.4,27.28a29.93,29.93,0,0,0,2.06-7.9A30.88,30.88,0,0,0,94.43,2l-.5-1L92.83.64A23,23,0,0,0,84.2.21a23.86,23.86,0,0,0-15,8.21,49,49,0,0,0-29.56,0,23.86,23.86,0,0,0-15-8.21,23,23,0,0,0-8.63.44L14.83,1l-.5,1a30.88,30.88,0,0,0-3,17.39,29.94,29.94,0,0,0,2.06,7.9A81.62,81.62,0,0,0,.68,49.2ZM64.92,91.68a7.1,7.1,0,0,1-3,3.9,26.11,26.11,0,0,1-2.54,1.22,15.63,15.63,0,0,0-4.75,2.85,15.63,15.63,0,0,0-4.75-2.85,26.08,26.08,0,0,1-2.54-1.22,7.1,7.1,0,0,1-3-3.9l.45-5.74,9.8-3.61,9.8,3.61ZM18.33,29.34,19.44,28l-.78-1.53a23.55,23.55,0,0,1-2.25-7.73,25.62,25.62,0,0,1,2-13.41,19.3,19.3,0,0,1,5.46-.06A18.91,18.91,0,0,1,36.71,13l1.15,1.49,1.77-.64a43.75,43.75,0,0,1,29.51,0l1.77.64L72.05,13A18.94,18.94,0,0,1,84.66,5.33a19.33,19.33,0,0,1,5.66,0,25.61,25.61,0,0,1,2,13.41A23.55,23.55,0,0,1,90.1,26.5L89.32,28l1.11,1.31a79.42,79.42,0,0,1,12.13,19.84C99.29,52,96.76,56.64,95,62.94a59.56,59.56,0,0,0-1.54,7.47,33.25,33.25,0,0,0-13.71,2.5,23.9,23.9,0,0,0,0-5.57,24.49,24.49,0,0,0,5.62-4.18c3.51-3.49,7.7-9.81,7.7-20.12H87.92c0,6.76-2,12.24-6,16.31a19.56,19.56,0,0,1-3.38,2.75,26.71,26.71,0,0,0-1.47-3.46,16.68,16.68,0,0,0,2.62-2.4c2.21-2.5,4.85-7,4.85-14.23H79.39c0,10.25-6.35,13.16-6.79,13.35L69.45,56.5l2,2.75a20.53,20.53,0,0,1,3,7.76,18.5,18.5,0,0,1-.81,9.53h0a22.52,22.52,0,0,1-3.38,6.07L57.19,77.8V73c5-2,7.31-7.23,8.14-9.79,1.17-3.36.72-6.32-1-12.93a8.24,8.24,0,0,1-.24-3.07,5.63,5.63,0,0,0,3.36,1.06h0a7.28,7.28,0,0,0,4.7-1.81,7.35,7.35,0,0,0,2.47-4.12,5.57,5.57,0,0,0-1.16-4.74,5.49,5.49,0,0,0-4.25-1.88,7.11,7.11,0,0,0-3.82,1.15h0a14.4,14.4,0,0,0-4,3.68,12.64,12.64,0,0,0-2.07,11c1.85,7.09,1.81,8.63.77,10.84a20.44,20.44,0,0,0-5.41,2,20.44,20.44,0,0,0-5.41-2c-1.07-2.28-1.15-3.88.66-10.84a12.64,12.64,0,0,0-2.07-11,14.4,14.4,0,0,0-4-3.68h0a7.11,7.11,0,0,0-3.82-1.15,5.49,5.49,0,0,0-4.25,1.88,5.57,5.57,0,0,0-1.16,4.74,7.35,7.35,0,0,0,2.47,4.12,7.28,7.28,0,0,0,4.7,1.81,5.63,5.63,0,0,0,3.36-1.06A8.24,8.24,0,0,1,45,50.27c-1.7,6.52-2.13,9.54-.85,13,.85,2.57,3.08,7.61,7.91,9.6v4.91l-13,4.8c-3.73-4.87-5.15-10.12-4.2-15.62a20.54,20.54,0,0,1,3-7.75l2.07-2.73-3.19-1.17c-.44-.19-6.79-3.09-6.79-13.35H24.8c0,7.23,2.64,11.73,4.85,14.23a16.68,16.68,0,0,0,2.62,2.4,26.73,26.73,0,0,0-1.56,3.73,19.52,19.52,0,0,1-3.82-3c-4-4.07-6-9.55-6-16.31H15.74c0,10.3,4.18,16.63,7.7,20.12a24.36,24.36,0,0,0,6.12,4.44,23.85,23.85,0,0,0,0,5.58,33,33,0,0,0-14.31-2.76,59.55,59.55,0,0,0-1.54-7.47C12,56.64,9.46,52,6.2,49.18A79.14,79.14,0,0,1,18.33,29.34ZM67.85,41.42a2.22,2.22,0,0,1,1.36-.58.55.55,0,0,1,.35.09c.12.14,0,.94-.75,1.62a2.22,2.22,0,0,1-1.36.58A.55.55,0,0,1,67.1,43C67,42.9,67.06,42.1,67.85,41.42ZM42.23,43a.55.55,0,0,1-.35.09,2.22,2.22,0,0,1-1.36-.58c-.8-.68-.87-1.48-.75-1.62a.55.55,0,0,1,.35-.09,2.22,2.22,0,0,1,1.36.58,2.25,2.25,0,0,1,.77,1.21A.59.59,0,0,1,42.23,43Z"/><path class="cls-2" d="M35.41,15.9S30,7.68,20.48,7.87c0,0-4.26,8.51,2,18C22.45,25.88,29.34,19.45,35.41,15.9Z"/><path class="cls-3" d="M88.15,7.87c-9.52-.19-14.8,8-14.8,8,6.07,3.55,13,10,13,10C92.54,16.38,88.15,7.87,88.15,7.87Z"/><path class="cls-4" d="M54.7,19.42a24.66,24.66,0,0,1,6.84.9L63,15.39a31.43,31.43,0,0,0-16.77.06l1.5,4.91A24.44,24.44,0,0,1,54.7,19.42Z"/><path class="cls-5" d="M54.74,28.12a35.84,35.84,0,0,1,9.94,1.31l1.45-4.93A41,41,0,0,0,54.74,23a40.7,40.7,0,0,0-11.66,1.6l1.5,4.91A35.52,35.52,0,0,1,54.74,28.12Z"/></g></g></svg>