<svg xmlns="http://www.w3.org/2000/svg" xmlns:xlink="http://www.w3.org/1999/xlink" viewBox="0 0 78.94 109.96"><defs><style>.cls-1{fill:url(#linear-gradient);}.cls-2{fill:url(#linear-gradient-2);}.cls-3{fill:url(#linear-gradient-3);}.cls-4{fill:url(#linear-gradient-4);}.cls-5{fill:url(#linear-gradient-5);}</style><linearGradient id="linear-gradient" x1="932.77" y1="-136.39" x2="932.77" y2="-115.4" gradientTransform="translate(-192.98 970.19) rotate(-68.41)" gradientUnits="userSpaceOnUse"><stop offset="0" stop-color="#37b34a"/><stop offset="0.15" stop-color="#8bc53f"/><stop offset="0.66" stop-color="#37b34a"/><stop offset="1" stop-color="#009345"/></linearGradient><linearGradient id="linear-gradient-2" x1="1451.81" y1="922.71" x2="1451.81" y2="963.6" gradientTransform="matrix(-0.53, -0.84, -0.84, 0.53, 1625.94, 770.83)" xlink:href="#linear-gradient"/><linearGradient id="linear-gradient-3" x1="28.89" y1="-4.33" x2="28.89" y2="123.75" gradientTransform="translate(11.51 -11.65) rotate(1.04)" xlink:href="#linear-gradient"/><linearGradient id="linear-gradient-4" x1="24.77" y1="88.9" x2="24.77" y2="117.9" gradientTransform="translate(11.51 -11.65) rotate(1.04)" xlink:href="#linear-gradient"/><linearGradient id="linear-gradient-5" x1="27.15" y1="110.69" x2="27.15" y2="122.87" gradientTransform="translate(11.51 -11.65) rotate(1.04)" xlink:href="#linear-gradient"/></defs><title>logoo</title><g id="Layer_2" data-name="Layer 2"><g id="Layer_1-2" data-name="Layer 1"><path class="cls-1" d="M35.86,65S25,61.87,28.25,47.51c0,0,15.41,2.35,9.86,17.22,0,0-3.13-9-6.08-9.91C32,54.82,36.51,62.16,35.86,65Z"/><path class="cls-2" d="M50.76,65.56s19.73-9.93,8.15-36.37c0,0-28.85,10-12.6,36.6,0,0,2.7-18.35,8-21.22C54.35,44.57,48.45,60.27,50.76,65.56Z"/><path class="cls-3" d="M69.37,65.21a39.46,39.46,0,1,0-59.76.06h0l.15.15c.55.63,1.13,1.24,1.72,1.84,0,0,9.88,9.11,22.13,7.76,19.48-2.14,21-14.3,21-14.3S53.06,66.51,40,68.5,19,60.66,19,60.66c-.43-.47-.86-.94-1.26-1.43l-.11-.12h0a31.77,31.77,0,0,1-7-20.64C10.91,21.51,24.09,8,40,8.28S68.66,22.56,68.36,39.52a31.62,31.62,0,0,1-8.65,21.33l-.26.13,0,.18-.46.47c-.94,1-2.19,2.45-3.44,4-6,5.66-18.1,14.3-37.16,15.24l0,0C18.36,81.16,17,89,19.84,94c0,0,18,3.95,37.26-14.51.57-.55,1.12-1.13,1.66-1.74C62.65,74.45,67,68.64,69.37,65.21Z"/><path class="cls-4" d="M18.36,80.89s16.26,13.17,32.7,8.5c0,0-.78,9.74-3.09,13.46,0,0-22.85-1.36-28.38-8.86C19.58,94,16.86,88.86,18.36,80.89Z"/><path class="cls-5" d="M26.9,100.81s13.52,4.48,19.46,2.53c0,0-2.18,7.15-11.54,6.59S26.9,100.81,26.9,100.81Z"/></g></g></svg>