<svg xmlns="http://www.w3.org/2000/svg" viewBox="0 0 255.1 147.05"><defs><style>.cls-1{fill:#e3fbff;}</style></defs><title>logo-main</title><g id="Layer_2" data-name="Layer 2"><g id="logos"><path class="cls-1" d="M68.68,2.71l5.08,3.06A35.52,35.52,0,0,0,69,5.21a7.74,7.74,0,0,0-4.37,1.11l4.31,1.37-2.53,2.8s7.66-1.4,7.69-.86S69.64,11.1,68.27,12a8.67,8.67,0,0,0-3,4.34l4.5-2-.66,3,2.48-2.55a35.46,35.46,0,0,0-1.87,4.4c-1,4.3,1.16,5.53,1.16,5.53s1.09-3.61,1.59-4.76c.29-.66,1.42-2.54,1.42-2.54a20.52,20.52,0,0,0,.77,2.21c1,2,1.49,1.61,1.49,1.61s-1.39-8.14-.47-7.53a26.07,26.07,0,0,1,4.15,6,33.44,33.44,0,0,1,.65,5.37,39.45,39.45,0,0,0,1.86-5.53,20.32,20.32,0,0,0-.19-3L83.83,19l.13-3a16.14,16.14,0,0,1,2.46,1.17,19.7,19.7,0,0,1,2.11,2.58,36,36,0,0,0-1.28-5.4,5.21,5.21,0,0,0-3.44-2.74c-.6-.21-2.49-.54-2.49-.54a12.32,12.32,0,0,1,2.1-.63,5.83,5.83,0,0,1,4.13,1.57l-1.47-2.3s.36-.34,1.8-.43c.66,0,2.65.09,2.65.09s-2.85-2.31-4-2.64a8.89,8.89,0,0,0-3.27.08,29.22,29.22,0,0,0-4,1.76,33.07,33.07,0,0,1,2.9-3A10.65,10.65,0,0,1,85,4.23a11.09,11.09,0,0,1,1.5-.09,19.44,19.44,0,0,0-3.69-.65,7.81,7.81,0,0,0-2.53.85A14.47,14.47,0,0,0,78.55,6a20.66,20.66,0,0,0-.92-2.65A8.46,8.46,0,0,0,76.2,1.57a8.61,8.61,0,0,0-1.83-1A22.27,22.27,0,0,0,72.07,0s1.12,1.56,1.45,2.11,1.29,2.56,1.29,2.56A5.59,5.59,0,0,0,72.07,3C71.5,2.82,68.68,2.71,68.68,2.71Z"/><path class="cls-1" d="M75,12.6S80.78,30.29,79.74,43c0,0,3.31,2.36,3.48-.31.15-2.37-7.12-30.21-7.12-30.21Z"/><path class="cls-1" d="M115.28,11.6l-5.67,1.75a35.53,35.53,0,0,1,4.79.62,7.74,7.74,0,0,1,4,2.13l-4.51.29,1.78,3.33s-7.09-3.2-7.26-2.68,3.93,2.49,5,3.7a8.67,8.67,0,0,1,1.91,5l-3.89-3-.08,3.07-1.8-3.07a35.28,35.28,0,0,1,.75,4.71c-.07,4.41-2.46,5.09-2.46,5.09s-.19-3.76-.4-5c-.13-.72-.76-2.81-.76-2.81a20.89,20.89,0,0,1-1.28,2c-1.5,1.7-1.83,1.2-1.83,1.2s3.3-7.56,2.26-7.19a26.14,26.14,0,0,0-5.48,4.86,33.22,33.22,0,0,0-1.92,5.06A39.25,39.25,0,0,1,98,24.75a20.15,20.15,0,0,1,.91-2.87l-2.23,1.86.61-3a16.13,16.13,0,0,0-2.67.54,19.59,19.59,0,0,0-2.67,2,36,36,0,0,1,2.54-4.93c.89-1.11,2-1.64,4-1.83a25.28,25.28,0,0,1,2.54.08,12.34,12.34,0,0,0-1.89-1.12,5.84,5.84,0,0,0-4.38.53l2-1.88s-.26-.42-1.64-.85c-.63-.2-2.59-.55-2.59-.55s3.32-1.56,4.52-1.6a8.87,8.87,0,0,1,3.15.86,29.42,29.42,0,0,1,3.5,2.68,33.39,33.39,0,0,0-2.1-3.59,10.69,10.69,0,0,0-2.48-1.94,11.18,11.18,0,0,0-1.44-.45,19.48,19.48,0,0,1,3.74.26,7.75,7.75,0,0,1,2.25,1.43,14.31,14.31,0,0,1,1.29,2A20.62,20.62,0,0,1,106.44,10a8.35,8.35,0,0,1,1.81-1.34,8.66,8.66,0,0,1,2-.55,22.25,22.25,0,0,1,2.36,0s-1.47,1.25-1.92,1.7S108.84,12,108.84,12a5.61,5.61,0,0,1,3.08-1C112.51,11,115.28,11.6,115.28,11.6Z"/><path class="cls-1" d="M106.74,19.67S96.89,35.46,94.83,48.09c0,0-3.78,1.49-3.3-1.13.42-2.34,14.18-27.61,14.18-27.61Z"/><path class="cls-1" d="M12.35,33H0V21.66H36.36V33H24V76H12.35Z"/><path class="cls-1" d="M46.78,67.34V76H36.06V39.53H51A13.86,13.86,0,0,1,65,53.59c0,4.5-2,7.77-4.2,9.32,3.34,2,4.2,4.66,4.2,9V76H54.47V72.62a5.24,5.24,0,0,0-5.28-5.28Zm3-17.87h-3v8.24h3a4.12,4.12,0,1,0,0-8.24Z"/><path class="cls-1" d="M68.85,58A19.35,19.35,0,1,1,88.27,77.13C77.78,77.13,68.85,68.51,68.85,58Zm11.34,0a8.29,8.29,0,0,0,8.08,8.39A8.16,8.16,0,0,0,96.2,58c0-4.66-3.42-8.55-7.92-8.55A8.33,8.33,0,0,0,80.19,58Z"/><path class="cls-1" d="M129,65.63h-5.67V76H112.59V39.53H129a12.77,12.77,0,0,1,12.74,12.82C141.73,59.42,136.14,65.63,129,65.63Zm-1.48-16.16h-4.2v6.22h4.2a3.11,3.11,0,1,0,0-6.22Z"/><path class="cls-1" d="M146.78,39.53H157.5V76H146.78Z"/><path class="cls-1" d="M182.06,66.33a9.58,9.58,0,0,0,7.54-3.5V75.58a19.11,19.11,0,0,1-7.54,1.55,19.23,19.23,0,1,1,0-38.46,19.12,19.12,0,0,1,7.54,1.55V53a9.58,9.58,0,0,0-7.54-3.5,8.44,8.44,0,0,0,0,16.86Z"/><path class="cls-1" d="M204.75,72.39,203.19,76H191.7L209.56,38.6,227.43,76h-11.5l-1.55-3.65Zm4.82-12.9-2.17,5.44h4.35Z"/><path class="cls-1" d="M231.09,39.53h10.72V66.1H255.1V76h-24Z"/><path class="cls-1" d="M19.11,120H13.44v10.41H2.72V93.92H19.11a12.77,12.77,0,0,1,12.74,12.82C31.85,113.81,26.26,120,19.11,120Zm-1.48-16.16h-4.2v6.22h4.2a3.11,3.11,0,1,0,0-6.22Z"/><path class="cls-1" d="M42.35,126.78l-1.55,3.65H29.29L47.16,93,65,130.44H53.53L52,126.78Zm4.82-12.9L45,119.32h4.35Z"/><path class="cls-1" d="M79.41,121.73v8.7H68.69V93.92H83.61A13.87,13.87,0,0,1,97.67,108c0,4.5-2,7.77-4.2,9.32,3.34,2,4.2,4.66,4.2,9v4.12H87.1V127a5.24,5.24,0,0,0-5.28-5.28Zm3-17.87h-3v8.24h3a4.12,4.12,0,0,0,0-8.24Z"/><path class="cls-1" d="M113.13,126.78l-1.55,3.65h-11.5L118,93l17.87,37.45h-11.5l-1.55-3.65Zm4.82-12.9-2.17,5.44h4.35Z"/><path class="cls-1" d="M139.48,93.92h16.78a18,18,0,0,1,17.79,18.26c0,10.1-7.77,18.26-17.79,18.26H139.48Zm14.92,26.57a8.31,8.31,0,1,0,0-16.63h-4.2v16.63Z"/><path class="cls-1" d="M179.11,93.92h10.72v36.52H179.11Z"/><path class="cls-1" d="M211.58,106.66a11.74,11.74,0,0,1,11.89,11.89,12.36,12.36,0,0,1-11.89,11.89H197.68v-9.95H211a1.86,1.86,0,1,0,0-3.73h-3.73a11.42,11.42,0,0,1,0-22.84h12v9.95H207.78a1.4,1.4,0,1,0,0,2.8Z"/><path class="cls-1" d="M228.84,93.92h23.31v9.95H239.56V107h11.58v9.33H239.56v4.19h12.82v9.95H228.84Z"/><rect class="cls-1" x="0.43" y="145.05" width="7.93" height="2"/><rect class="cls-1" x="15.82" y="145.05" width="7.93" height="2"/><rect class="cls-1" x="31.21" y="145.05" width="7.93" height="2"/><rect class="cls-1" x="46.61" y="145.05" width="7.93" height="2"/><rect class="cls-1" x="62" y="145.05" width="7.93" height="2"/><rect class="cls-1" x="77.4" y="145.05" width="7.93" height="2"/><rect class="cls-1" x="92.8" y="145.05" width="7.93" height="2"/><rect class="cls-1" x="108.19" y="145.05" width="7.93" height="2"/><rect class="cls-1" x="123.58" y="145.05" width="7.93" height="2"/><rect class="cls-1" x="138.98" y="145.05" width="7.93" height="2"/><rect class="cls-1" x="154.37" y="145.05" width="7.93" height="2"/><rect class="cls-1" x="169.77" y="145.05" width="7.93" height="2"/><rect class="cls-1" x="185.16" y="145.05" width="7.93" height="2"/><rect class="cls-1" x="200.56" y="145.05" width="7.93" height="2"/><rect class="cls-1" x="215.95" y="145.05" width="7.93" height="2"/><rect class="cls-1" x="231.35" y="145.05" width="7.93" height="2"/><rect class="cls-1" x="246.74" y="145.05" width="7.93" height="2"/></g></g></svg>