<svg xmlns="http://www.w3.org/2000/svg" viewBox="0 0 43.02 58.45"><defs><style>.cls-1{fill:#5fc3d7;}.cls-2{fill:#90a8b0;}</style></defs><title>Asset 8</title><g id="Layer_2" data-name="Layer 2"><g id="Layer_1-2" data-name="Layer 1"><path class="cls-1" d="M22.3,19.88c-1.1,1.6-10.73,15.88-10.73,23.54,0,8.29,5.46,15,12.16,15s12.17-6.74,12.17-15c0-7.66-9.63-21.94-10.72-23.54A1.71,1.71,0,0,0,22.3,19.88Z"/><path class="cls-2" d="M6.28,8.23C5.63,9.17,0,17.52,0,22c0,4.85,3.19,8.8,7.12,8.8s7.12-3.95,7.12-8.8C14.24,17.52,8.6,9.17,8,8.23A1,1,0,0,0,6.28,8.23Z"/><path class="cls-2" d="M35.06.46c-.64.94-6.28,9.29-6.28,13.77,0,4.85,3.19,8.8,7.12,8.8S43,19.09,43,14.24C43,9.75,37.39,1.4,36.75.46A1,1,0,0,0,35.06.46Z"/></g></g></svg>