<svg xmlns="http://www.w3.org/2000/svg" viewBox="0 0 79.21 79.2"><defs><style>.cls-1{fill:#90a8b0;}.cls-2{fill:#f7cf47;}</style></defs><title>Asset 7</title><g id="Layer_2" data-name="Layer 2"><g id="Layer_1-2" data-name="Layer 1"><path class="cls-1" d="M41.91,26.61a13.38,13.38,0,0,0-2.3-.21,13.2,13.2,0,1,0,0,26.4,13.38,13.38,0,0,0,2.3-.21,15.38,15.38,0,0,1,0-26Z"/><path class="cls-2" d="M75.61,36H64.77a25.23,25.23,0,0,0-1.56-5.88l9.37-5.41A3.6,3.6,0,1,0,69,18.48L59.6,23.9a25.45,25.45,0,0,0-4.3-4.29l5.42-9.38a3.6,3.6,0,1,0-6.24-3.6L49.08,16a25.07,25.07,0,0,0-5.87-1.56V3.6a3.6,3.6,0,1,0-7.2,0V14.44A25.2,25.2,0,0,0,30.14,16L24.72,6.62a3.6,3.6,0,0,0-6.24,3.6l5.42,9.39a25.86,25.86,0,0,0-4.29,4.29l-9.39-5.42a3.6,3.6,0,1,0-3.6,6.24L16,30.13A24.9,24.9,0,0,0,14.45,36H3.6a3.6,3.6,0,0,0,0,7.2H14.45A25.06,25.06,0,0,0,16,49.07L6.62,54.49a3.6,3.6,0,0,0,1.8,6.72,3.56,3.56,0,0,0,1.79-.48l9.39-5.42a25.84,25.84,0,0,0,4.29,4.29L18.49,69a3.6,3.6,0,0,0,6.24,3.6l5.41-9.38A25.11,25.11,0,0,0,36,64.76V75.6a3.6,3.6,0,0,0,7.2,0V64.76a25.16,25.16,0,0,0,5.87-1.56l5.41,9.38A3.6,3.6,0,1,0,60.73,69L55.31,59.6a25.62,25.62,0,0,0,4.29-4.29L69,60.72a3.55,3.55,0,0,0,1.79.48,3.6,3.6,0,0,0,1.8-6.72l-9.38-5.41a25,25,0,0,0,1.56-5.87H75.61a3.6,3.6,0,1,0,0-7.2Zm-36,21.2a17.6,17.6,0,1,1,17.6-17.6A17.6,17.6,0,0,1,39.6,57.2Z"/></g></g></svg>