<svg xmlns="http://www.w3.org/2000/svg" xmlns:xlink="http://www.w3.org/1999/xlink" viewBox="0 0 44.1 76.18"><defs><style>.cls-1{fill:url(#linear-gradient);}.cls-2{fill:#90a8b0;}</style><linearGradient id="linear-gradient" x1="7.71" y1="37.7" x2="36.26" y2="37.7" gradientUnits="userSpaceOnUse"><stop offset="0" stop-color="#9acf21"/><stop offset="1" stop-color="#82c41b"/></linearGradient></defs><title>Asset 6</title><g id="Layer_2" data-name="Layer 2"><g id="Layer_1-2" data-name="Layer 1"><path class="cls-1" d="M26.06,40.46V11.07a4.08,4.08,0,1,0-8.15,0V40.46a14.27,14.27,0,1,0,8.15,0Z"/><path class="cls-2" d="M34.08,35.66V12A12,12,0,1,0,10,12V35.66a22.05,22.05,0,1,0,24.06,0Zm-12,36.5a18,18,0,0,1-9-33.65l1-.58V12a8,8,0,1,1,16,0V37.94l1,.58a18,18,0,0,1-9,33.65Z"/></g></g></svg>