<svg xmlns="http://www.w3.org/2000/svg" xmlns:xlink="http://www.w3.org/1999/xlink" viewBox="0 0 68.5 63.72"><defs><style>.cls-1{fill:url(#linear-gradient);}.cls-2{fill:#90a8b0;}</style><linearGradient id="linear-gradient" x1="45.84" y1="48.87" x2="68.5" y2="48.87" gradientUnits="userSpaceOnUse"><stop offset="0" stop-color="#9acf21"/><stop offset="1" stop-color="#82c41b"/></linearGradient></defs><title>Asset 5</title><g id="Layer_2" data-name="Layer 2"><g id="Layer_1-2" data-name="Layer 1"><path class="cls-1" d="M55.83,34.64c-1,1.21-10,12-10,17.74a11.33,11.33,0,0,0,22.66,0c0-5.77-9-16.52-10-17.74A1.82,1.82,0,0,0,55.83,34.64Z"/><circle class="cls-2" cx="29.58" cy="5.92" r="5.92"/><path class="cls-2" d="M58.26,20.63A30.53,30.53,0,0,0,40.38,4.38a5.89,5.89,0,0,0-2.85,6.72,23.2,23.2,0,0,1,16.1,20.39A5.9,5.9,0,0,0,60.8,29.9,30.25,30.25,0,0,0,58.26,20.63Z"/><path class="cls-2" d="M40.57,54.14a23.07,23.07,0,0,1-8.36,2.22c-.57,0-1.14.07-1.71.07A23.22,23.22,0,0,1,11.92,19.3a5.89,5.89,0,0,0-7.07-2.57,30.49,30.49,0,0,0,25.64,47c1,0,2-.05,3-.15A30.29,30.29,0,0,0,43,61a5.9,5.9,0,0,0-2.47-6.87Z"/><path class="cls-2" d="M34,30.23h0c-.08-.09-.16-.19-.25-.27L10.24,5.35l17,30h0A4.27,4.27,0,0,0,35.12,33,4.24,4.24,0,0,0,34,30.23Z"/></g></g></svg>