<svg xmlns="http://www.w3.org/2000/svg" xmlns:xlink="http://www.w3.org/1999/xlink" viewBox="0 0 428.05 428.05"><defs><style>.cls-1{fill:url(#linear-gradient);}.cls-2{fill:url(#linear-gradient-2);}.cls-3{fill:url(#linear-gradient-3);}.cls-4{fill:url(#linear-gradient-4);}.cls-5{fill:url(#linear-gradient-5);}.cls-6{fill:url(#linear-gradient-6);}.cls-7{fill:url(#linear-gradient-7);}.cls-8{fill:url(#linear-gradient-8);}.cls-9{fill:url(#linear-gradient-9);}.cls-10{fill:url(#linear-gradient-10);}</style><linearGradient id="linear-gradient" x1="-830.91" y1="211.08" x2="-685.68" y2="211.08" gradientTransform="translate(920.96 -127.85) rotate(-9.85)" gradientUnits="userSpaceOnUse"><stop offset="0" stop-color="#599146"/><stop offset="0.3" stop-color="#6da44b"/><stop offset="1" stop-color="#99cd55"/></linearGradient><linearGradient id="linear-gradient-2" x1="60.03" y1="321.29" x2="143.5" y2="321.29" gradientUnits="userSpaceOnUse"><stop offset="0" stop-color="#9acf21"/><stop offset="1" stop-color="#82c41b"/></linearGradient><linearGradient id="linear-gradient-3" x1="60.03" y1="104.76" y2="104.76" xlink:href="#linear-gradient-2"/><linearGradient id="linear-gradient-4" x1="285.55" y1="104.76" x2="369.03" y2="104.76" xlink:href="#linear-gradient-2"/><linearGradient id="linear-gradient-5" x1="285.55" y1="321.29" x2="369.03" y2="321.29" xlink:href="#linear-gradient-2"/><linearGradient id="linear-gradient-6" x1="209.61" y1="-39.84" x2="226.7" y2="1745.03" gradientUnits="userSpaceOnUse"><stop offset="0.18" stop-color="#fff"/><stop offset="0.35" stop-color="#dbdbdb"/><stop offset="0.43" stop-color="#d5d5d5"/><stop offset="0.55" stop-color="#c3c3c3"/><stop offset="0.68" stop-color="#a7a5a6"/><stop offset="0.81" stop-color="#827f80"/><stop offset="1" stop-color="#3a3637"/></linearGradient><linearGradient id="linear-gradient-7" x1="395.81" y1="-41.62" x2="412.9" y2="1743.25" gradientUnits="userSpaceOnUse"><stop offset="0.18" stop-color="#fff"/><stop offset="0.35" stop-color="#dbdbdb"/><stop offset="0.45" stop-color="#d8d8d8"/><stop offset="0.53" stop-color="#cecece"/><stop offset="0.61" stop-color="#bebdbd"/><stop offset="0.68" stop-color="#a6a5a5"/><stop offset="0.74" stop-color="#898687"/><stop offset="0.76" stop-color="#827f80"/><stop offset="1" stop-color="#3a3637"/></linearGradient><linearGradient id="linear-gradient-8" x1="212.58" y1="-39.87" x2="229.67" y2="1745" gradientUnits="userSpaceOnUse"><stop offset="0.18" stop-color="#fff"/><stop offset="0.38" stop-color="#dbdbdb"/><stop offset="0.5" stop-color="#d8d8d8"/><stop offset="0.58" stop-color="#d0d0d0"/><stop offset="0.64" stop-color="#c2c1c1"/><stop offset="0.7" stop-color="#aeacad"/><stop offset="0.75" stop-color="#949292"/><stop offset="0.78" stop-color="#827f80"/><stop offset="1" stop-color="#3a3637"/></linearGradient><linearGradient id="linear-gradient-9" x1="27.39" y1="-38.1" x2="44.48" y2="1746.77" gradientUnits="userSpaceOnUse"><stop offset="0.18" stop-color="#fff"/><stop offset="0.35" stop-color="#dbdbdb"/><stop offset="0.51" stop-color="#d9d9d9"/><stop offset="0.57" stop-color="#d2d2d2"/><stop offset="0.62" stop-color="#c7c6c6"/><stop offset="0.66" stop-color="#b6b4b5"/><stop offset="0.69" stop-color="#a09e9f"/><stop offset="0.72" stop-color="#868384"/><stop offset="0.72" stop-color="#827f80"/><stop offset="1" stop-color="#3a3637"/></linearGradient><linearGradient id="linear-gradient-10" x1="213.53" y1="54.63" x2="213.53" y2="1158.75" gradientUnits="userSpaceOnUse"><stop offset="0" stop-color="#fff"/><stop offset="0.42" stop-color="#dbdbdb"/><stop offset="0.79" stop-color="#827f80"/><stop offset="1" stop-color="#3a3637"/></linearGradient></defs><title>Asset 3</title><g id="Layer_2" data-name="Layer 2"><g id="Layer_1-2" data-name="Layer 1"><path class="cls-1" d="M261.5,269.73s10.47-32.15-12.14-59.65a56,56,0,0,1-4.55,18.44s-.53-24.86-24.93-42c-22.94-16.09-64.3-41.2-60.8-83.64,0,0-27.91,39.16-18.15,72.61,0,0-7.1-3-9.24-8.73,0,0-3.26,78.08,48.35,103.08a84.21,84.21,0,0,1-18.66,1s48,43.36,94.53,9.6c0,0-62.81-14.67-88.64-91,0,0,27.63,65.61,91.11,85.9,0,0,23.72,10.1,35.55,35.81l6.75-3.38S295.43,287.71,261.5,269.73Z"/><polygon class="cls-2" points="71.03 352.02 71.03 290.55 60.02 279.55 60.02 363.02 143.5 363.02 132.5 352.02 71.03 352.02"/><polygon class="cls-3" points="71.03 74.03 132.5 74.03 143.5 63.02 60.02 63.02 60.02 146.5 71.03 135.5 71.03 74.03"/><polygon class="cls-4" points="358.02 74.03 358.02 135.5 369.02 146.5 369.02 63.02 285.55 63.02 296.55 74.03 358.02 74.03"/><polygon class="cls-5" points="369.02 279.55 358.02 290.55 358.02 352.02 296.55 352.02 285.55 363.02 369.02 363.02 369.02 279.55"/><polygon class="cls-6" points="213.53 412.49 170.06 369.02 154.5 369.02 213.53 428.05 272.55 369.02 256.99 369.02 213.53 412.49"/><polygon class="cls-7" points="412.49 213.53 369.02 256.99 369.02 272.55 428.05 213.53 369.02 154.5 369.02 170.06 412.49 213.53"/><polygon class="cls-8" points="213.53 15.56 256.99 59.02 272.55 59.02 213.53 0 154.5 59.02 170.06 59.02 213.53 15.56"/><polygon class="cls-9" points="15.56 213.53 59.02 170.06 59.02 154.5 0 213.53 59.02 272.55 59.02 256.99 15.56 213.53"/><path class="cls-10" d="M345,143.5,283.55,82l-11-11H154.5l-11,11L82,143.5l-11,11V272.55l11,11L143.5,345l11,11H272.55l11-11L345,283.55l11-11V154.5ZM345,268l-77,77H159.06L82,268V159.06l77-77H268l77,77Z"/></g></g></svg>