<svg xmlns="http://www.w3.org/2000/svg" xmlns:xlink="http://www.w3.org/1999/xlink" viewBox="0 0 195 157"><defs><style>.cls-1{fill:url(#linear-gradient);}.cls-2{fill:url(#linear-gradient-2);}</style><linearGradient id="linear-gradient" x1="57.23" y1="90.5" x2="195" y2="90.5" gradientUnits="userSpaceOnUse"><stop offset="0" stop-color="#9acf21"/><stop offset="1" stop-color="#82c41b"/></linearGradient><linearGradient id="linear-gradient-2" x1="79.96" y1="-397.25" x2="95.28" y2="1116.28" gradientUnits="userSpaceOnUse"><stop offset="0.18" stop-color="#fff"/><stop offset="0.35" stop-color="#dbdbdb"/><stop offset="0.72" stop-color="#827f80"/><stop offset="1" stop-color="#3a3637"/></linearGradient></defs><title>Asset 2</title><g id="Layer_2" data-name="Layer 2"><g id="Layer_1-2" data-name="Layer 1"><path class="cls-1" d="M187.94,24H180v82.94a7.06,7.06,0,0,1-7.06,7.06H71.28L57.23,126h77.49L171,157V126h16.94a7.06,7.06,0,0,0,7.06-7.06V31.06A7.06,7.06,0,0,0,187.94,24Z"/><path class="cls-2" d="M161.94,0H7.06A7.06,7.06,0,0,0,0,7.06V94.94A7.06,7.06,0,0,0,7.06,102H24v31l22.23-19,14.05-12H161.94A7.06,7.06,0,0,0,169,94.94V7.06A7.06,7.06,0,0,0,161.94,0Z"/></g></g></svg>