<svg xmlns="http://www.w3.org/2000/svg" xmlns:xlink="http://www.w3.org/1999/xlink" viewBox="0 0 77 112.5"><defs><style>.cls-1{fill:url(#linear-gradient);}.cls-2{fill:none;}.cls-3{fill:url(#linear-gradient-2);}.cls-4{fill:url(#linear-gradient-3);}</style><linearGradient id="linear-gradient" x1="17.22" y1="60.09" x2="60.28" y2="60.09" gradientUnits="userSpaceOnUse"><stop offset="0" stop-color="#9acf21"/><stop offset="1" stop-color="#82c41b"/></linearGradient><linearGradient id="linear-gradient-2" x1="38.5" y1="-35.38" x2="38.5" y2="231.23" gradientUnits="userSpaceOnUse"><stop offset="0.03" stop-color="#fff"/><stop offset="0.13" stop-color="#f8f8f8"/><stop offset="0.28" stop-color="#e5e4e4"/><stop offset="0.45" stop-color="#c5c4c4"/><stop offset="0.65" stop-color="#999798"/><stop offset="0.86" stop-color="#625f60"/><stop offset="1" stop-color="#3a3637"/></linearGradient><linearGradient id="linear-gradient-3" x1="37.5" y1="-35.38" x2="37.5" y2="231.23" xlink:href="#linear-gradient-2"/></defs><title>repo</title><g id="Layer_2" data-name="Layer 2"><g id="Layer_1-2" data-name="Layer 1"><path class="cls-1" d="M38.83,38.55A21.53,21.53,0,1,0,60.28,60.16,21.57,21.57,0,0,0,38.83,38.55ZM37.43,72a2.73,2.73,0,0,1-2.49,1.09A3.89,3.89,0,0,1,32.3,72L22,62.5a3.12,3.12,0,0,1,0-4.67l1.86-1.71a4.49,4.49,0,0,1,2.65-.93,4.38,4.38,0,0,1,2.33.93l5.91,5.44L48.46,48.19A3.62,3.62,0,0,1,50.8,47.1a4.46,4.46,0,0,1,2.64.93l2,1.71a3.37,3.37,0,0,1,.16,4.66Z"/><path class="cls-2" d="M37.5,5c-3,0-5.38,2.89-5.49,6.5H43C42.88,7.89,40.46,5,37.5,5Z"/><path class="cls-3" d="M65.25,15H60.5v7h4.75A4.76,4.76,0,0,1,70,26.75v74a4.76,4.76,0,0,1-4.75,4.75H11.75A4.76,4.76,0,0,1,7,100.75v-74A4.76,4.76,0,0,1,11.75,22H14.5V15H11.75A11.76,11.76,0,0,0,0,26.75v74A11.76,11.76,0,0,0,11.75,112.5h53.5A11.76,11.76,0,0,0,77,100.75v-74A11.76,11.76,0,0,0,65.25,15Z"/><path class="cls-4" d="M18.5,22h.13a3.38,3.38,0,0,0,3.24,2.5H53.13A3.38,3.38,0,0,0,56.37,22h.13V14.88a3.38,3.38,0,0,0-3.37-3.37H48C47.86,5.14,43.21,0,37.5,0S27.14,5.14,27,11.5H21.88a3.38,3.38,0,0,0-3.37,3.38V22Zm19-17c3,0,5.38,2.89,5.49,6.5H32C32.12,7.89,34.54,5,37.5,5Z"/></g></g></svg>