<svg xmlns="http://www.w3.org/2000/svg" xmlns:xlink="http://www.w3.org/1999/xlink" viewBox="0 0 114.98 93.72"><defs><style>.cls-1{fill:url(#linear-gradient);}.cls-2{fill:url(#linear-gradient-2);}.cls-3{fill:url(#linear-gradient-3);}.cls-4{fill:url(#linear-gradient-4);}</style><linearGradient id="linear-gradient" x1="53.86" y1="-32.47" x2="53.86" y2="274.2" gradientUnits="userSpaceOnUse"><stop offset="0.18" stop-color="#fff"/><stop offset="0.35" stop-color="#dbdbdb"/><stop offset="0.72" stop-color="#827f80"/><stop offset="1" stop-color="#3a3637"/></linearGradient><linearGradient id="linear-gradient-2" x1="89.83" y1="-32.47" x2="89.83" y2="274.2" xlink:href="#linear-gradient"/><linearGradient id="linear-gradient-3" y1="32.32" x2="100.69" y2="32.32" gradientUnits="userSpaceOnUse"><stop offset="0" stop-color="#9acf21"/><stop offset="1" stop-color="#82c41b"/></linearGradient><linearGradient id="linear-gradient-4" x1="75.59" y1="-57.97" x2="75.59" y2="248.7" gradientUnits="userSpaceOnUse"><stop offset="0.22" stop-color="#fff"/><stop offset="0.38" stop-color="#dbdbdb"/><stop offset="0.73" stop-color="#827f80"/><stop offset="1" stop-color="#3a3637"/></linearGradient></defs><title>shop</title><g id="Layer_2" data-name="Layer 2"><g id="Layer_1-2" data-name="Layer 1"><path class="cls-1" d="M51.61,71.85A11.94,11.94,0,0,0,43,80.46c-.9,6.78,3.64,12.23,8.62,13.09,8.58,1.37,14-5.84,13.13-13.09C63.84,74.59,58,71,51.61,71.85Z"/><path class="cls-2" d="M87.35,71.85c-4.07.94-7.68,4.54-8.15,8.62-1.34,6.78,3.17,12.23,8.15,13.09,9.05,1.37,14.5-5.84,13.13-13.09C99.58,74.59,93.7,71,87.35,71.85Z"/><path class="cls-3" d="M46.17,57.85C37.11,38.88,29,19,20.38,0H0V7.21H15.4c8.15,19.48,16.73,38.45,25.36,57.42h59.72c.47-1.8,0-5,0-6.78Z"/><path class="cls-4" d="M38.48,21.71H52l2.74,7.21H41.66l2.71,6.78H58l2.7,7.68H47.53l2.71,6.78h50.71l14-35.71H36.21Z"/></g></g></svg>