<svg xmlns="http://www.w3.org/2000/svg" xmlns:xlink="http://www.w3.org/1999/xlink" viewBox="0 0 110.28 108.75"><defs><style>.cls-1{fill-rule:evenodd;fill:url(#linear-gradient);}.cls-2{fill:url(#linear-gradient-2);}</style><linearGradient id="linear-gradient" x1="55.14" y1="8.72" x2="55.14" y2="221.75" gradientUnits="userSpaceOnUse"><stop offset="0.03" stop-color="#fff"/><stop offset="0.16" stop-color="#fbfbfb"/><stop offset="0.3" stop-color="#eee"/><stop offset="0.44" stop-color="#dad9d9"/><stop offset="0.58" stop-color="#bcbbbb"/><stop offset="0.72" stop-color="#979595"/><stop offset="0.87" stop-color="#6a6767"/><stop offset="1" stop-color="#3a3637"/></linearGradient><linearGradient id="linear-gradient-2" x1="21.28" y1="32.5" x2="86.28" y2="32.5" gradientUnits="userSpaceOnUse"><stop offset="0" stop-color="#9acf21"/><stop offset="1" stop-color="#82c41b"/></linearGradient></defs><title>support</title><g id="Layer_2" data-name="Layer 2"><g id="Layer_1-2" data-name="Layer 1"><path class="cls-1" d="M39.61,66.62C13.26,81.39,0,73,0,108.75H110.28c0-34.41-13.26-27.36-39.44-42.13-4.53,4.2-9.73,7.05-15.44,7.05-6,0-11.41-2.86-15.78-7.05Z"/><path id="headphones" class="cls-2" d="M47.9,60.45c-9.59-2-17.17-4-19.26-13.54A12.44,12.44,0,0,1,29,24a24.81,24.81,0,0,1,49.59,0,12.44,12.44,0,0,1,7.69,11.51C86.28,42.41,79.85,48,73,48h-.22V23.67C72.16,13.27,64.37,5,53.8,5,43,5,35,13.65,34.82,24.38V47.59c2.14,6.72,7.77,6.47,14.76,8,1.08-1.6,2.12-2.65,4.2-2.65a6.05,6.05,0,1,1-5.88,7.56Z"/></g></g></svg>