<svg xmlns="http://www.w3.org/2000/svg" xmlns:xlink="http://www.w3.org/1999/xlink" viewBox="0 0 96.11 90.83"><defs><style>.cls-1{fill:url(#linear-gradient);}.cls-2{fill:url(#linear-gradient-2);}</style><linearGradient id="linear-gradient" y1="38.51" x2="37.07" y2="38.51" gradientUnits="userSpaceOnUse"><stop offset="0" stop-color="#9acf21"/><stop offset="1" stop-color="#82c41b"/></linearGradient><linearGradient id="linear-gradient-2" x1="54.22" y1="-44.5" x2="54.22" y2="296.11" gradientUnits="userSpaceOnUse"><stop offset="0.18" stop-color="#fff"/><stop offset="0.35" stop-color="#dbdbdb"/><stop offset="0.72" stop-color="#827f80"/><stop offset="1" stop-color="#3a3637"/></linearGradient></defs><title>Userz</title><g id="Layer_2" data-name="Layer 2"><g id="Layer_1-2" data-name="Layer 1"><path class="cls-1" d="M35.44,51.83c2.93-1.07,1-7.42,1-7.42-3.29-1.71-4-7.12-4-7.12-2.6.84-3.33-2.79-4-8.79-.65-4.56,2.15-3.67,2.15-3.67l-.37-4.33c-1.12-8.39.84-13.56,4-16.73-.55,0-1.16-.08-1.84-.08h-.6a24.29,24.29,0,0,0-4.21.38v.09c-5.32,1.18-10.76,5-9.29,16l.28,4.09s-2.16-2.56-1.65,2,1.53,6.65,2.81,4.6c0,0,.8,6.29,3.32,7.6,0,0,1.48,4.87-.77,5.69,0,0-21.21,7.16-22,15.08a70.76,70.76,0,0,0,0,14.06H6.62q.07-.9.16-1.83C7.78,61.17,35.44,51.83,35.44,51.83Z"/><path class="cls-2" d="M95.67,72.5C94.67,62.17,67,52.83,67,52.83c-2.93-1.07-1-7.42-1-7.42,3-1.33,4.33-9.91,4.33-9.91,1.67,2.67,3,0,3.67-6S71.84,27,71.84,27l.38-5.52C74.14,7.13,67.05,2.16,60.11.62V.5A31.67,31.67,0,0,0,54.62,0h-.79a31.67,31.67,0,0,0-5.49.5V.62a16.29,16.29,0,0,0-8.08,4.15c-3.2,3.17-5.16,8.34-4,16.73l.37,5.33s-2.81-3.33-2.15,2.67,2,8.67,3.67,6c0,0,1,8.21,4.33,9.91,0,0,1.93,6.35-1,7.42,0,0-27.67,9.33-28.67,19.67q-.09.93-.16,1.83a91.17,91.17,0,0,0,.16,16.5H95.67A92.29,92.29,0,0,0,95.67,72.5Z"/></g></g></svg>